HIERARCHY
ROOT joint_Root
{
	OFFSET 0.0 0.0 0.0
	CHANNELS 6 Xposition Yposition Zposition Zrotation Xrotation Yrotation 
	JOINT Hips
	{
		OFFSET 4.5925 91.4895 -427.239
		CHANNELS 6 Xposition Yposition Zposition Zrotation Xrotation Yrotation 
		JOINT Spine
		{
			OFFSET 15.7357 0.0 0.0
			CHANNELS 6 Xposition Yposition Zposition Zrotation Xrotation Yrotation 
			JOINT Chest
			{
				OFFSET 8.98455 -0.406207 0.0
				CHANNELS 6 Xposition Yposition Zposition Zrotation Xrotation Yrotation 
				JOINT Neck
				{
					OFFSET 16.3773 0.0 0.0
					CHANNELS 6 Xposition Yposition Zposition Zrotation Xrotation Yrotation 
					JOINT Head
					{
						OFFSET 6.45672 0.0 0.0
						CHANNELS 6 Xposition Yposition Zposition Zrotation Xrotation Yrotation 
						End Site
						{
							OFFSET 0.0 0.0 0.0
						}
					}
				}
				JOINT Shoulder_L
				{
					OFFSET 12.9942 -0.242716 4.98039
					CHANNELS 6 Xposition Yposition Zposition Zrotation Xrotation Yrotation 
					JOINT UpperArm_L
					{
						OFFSET 5.34809 0.0 0.0
						CHANNELS 6 Xposition Yposition Zposition Zrotation Xrotation Yrotation 
						JOINT LowerArm_L
						{
							OFFSET 24.3286 1.87007e-05 0.0
							CHANNELS 6 Xposition Yposition Zposition Zrotation Xrotation Yrotation 
							JOINT Hand_L
							{
								OFFSET 22.2916 0.0 0.0
								CHANNELS 6 Xposition Yposition Zposition Zrotation Xrotation Yrotation 
								End Site
								{
									OFFSET 0.0 0.0 0.0
								}
							}
						}
					}
				}
				JOINT Shoulder_R
				{
					OFFSET 12.9945 -0.242716 -4.98039
					CHANNELS 6 Xposition Yposition Zposition Zrotation Xrotation Yrotation 
					JOINT UpperArm_R
					{
						OFFSET -5.34813 0.0 0.0
						CHANNELS 6 Xposition Yposition Zposition Zrotation Xrotation Yrotation 
						JOINT LowerArm_R
						{
							OFFSET -24.3289 0.000322201 0.0
							CHANNELS 6 Xposition Yposition Zposition Zrotation Xrotation Yrotation 
							JOINT Hand_R
							{
								OFFSET -22.2915 -0.000108084 0.0
								CHANNELS 6 Xposition Yposition Zposition Zrotation Xrotation Yrotation 
								End Site
								{
									OFFSET 0.0 0.0 0.0
								}
							}
						}
					}
				}
			}
		}
		JOINT UpperLeg_L
		{
			OFFSET -2.19248 -6.46944 0.0
			CHANNELS 6 Xposition Yposition Zposition Zrotation Xrotation Yrotation 
			JOINT LowerLeg_L
			{
				OFFSET 39.0811 0.0 -1.23785e-05
				CHANNELS 6 Xposition Yposition Zposition Zrotation Xrotation Yrotation 
				JOINT Foot_L
				{
					OFFSET 40.9854 0.0 -1.26872e-05
					CHANNELS 6 Xposition Yposition Zposition Zrotation Xrotation Yrotation 
					JOINT Toes_L
					{
						OFFSET 11.7543 0.0 0.0
						CHANNELS 6 Xposition Yposition Zposition Zrotation Xrotation Yrotation 
						End Site
						{
							OFFSET 0.0 0.0 0.0
						}
					}
				}
			}
		}
		JOINT UpperLeg_R
		{
			OFFSET -2.19251 6.46944 0.0
			CHANNELS 6 Xposition Yposition Zposition Zrotation Xrotation Yrotation 
			JOINT LowerLeg_R
			{
				OFFSET -39.0811 -0.00228153 -0.0401928
				CHANNELS 6 Xposition Yposition Zposition Zrotation Xrotation Yrotation 
				JOINT Foot_R
				{
					OFFSET -40.9854 0.0 0.0
					CHANNELS 6 Xposition Yposition Zposition Zrotation Xrotation Yrotation 
					JOINT Toes_R
					{
						OFFSET -11.7543 0.0 0.0
						CHANNELS 6 Xposition Yposition Zposition Zrotation Xrotation Yrotation 
						End Site
						{
							OFFSET 0.0 0.0 0.0
						}
					}
				}
			}
		}
	}
}
MOTION
Frames:	4
Frame Time:	0.0333333
0.000000 0.000000 0.000000 0.000000 0.000000 -0.000000 -1.171350 91.540500 1.622200 89.588200 -1.577940 2.183700 15.735700 0.000005 -0.000001 75.348700 88.248600 -75.719300 8.984550 -0.406207 -0.000000 -4.380050 -0.846009 -0.774013 16.377300 -0.000001 -0.000001 2.207670 -3.578340 2.916750 6.456720 -0.000001 -0.000000 -0.939382 -1.780990 1.517380 12.994200 -0.242716 4.980390 -82.985500 -11.647500 -58.639800 5.348090 -0.000007 -0.000001 -44.271900 -67.167200 -86.981200 24.328600 0.000019 0.000005 16.122300 12.545500 -53.076800 22.291600 -0.000001 0.000005 34.038600 5.477230 -5.643210 12.994500 -0.242716 -4.980390 95.008000 -11.023800 -65.379000 -5.348130 -0.000001 -0.000004 -40.995900 -66.646600 -83.270000 -24.328900 0.000322 -0.000009 2.059320 1.533820 -53.354000 -22.291500 -0.000108 -0.000004 19.740100 5.575290 -9.959150 -2.192480 -6.469440 -0.000000 -175.875000 -11.092800 -4.213570 39.081100 -0.000007 -0.000012 -0.166733 0.350737 25.425600 40.985400 -0.000006 -0.000013 -0.933739 4.353430 -68.860700 11.754300 -0.000000 0.000003 -0.000203 -0.001876 -16.648300 -2.192510 6.469440 -0.000001 176.801000 21.784900 177.939000 -39.081100 -0.002282 -0.040193 0.014487 -0.024202 24.784100 -40.985400 0.000008 0.000006 7.256330 12.813700 -71.351100 -11.754300 -0.000006 -0.000006 -0.000985 -0.015199 -17.191300
0.000000 0.000000 0.000000 0.000000 0.000000 -0.000000 -1.150750 91.573300 1.478830 89.638500 -1.563160 2.177620 15.735700 0.000005 -0.000001 74.932200 88.153500 -75.313600 8.984550 -0.406207 -0.000000 -4.203220 -0.919506 -0.797007 16.377300 -0.000001 -0.000001 2.169590 -3.484280 2.837660 6.456720 -0.000001 -0.000000 -0.983611 -1.621600 1.519450 12.994200 -0.242716 4.980390 -83.133800 -11.463500 -58.789200 5.348090 -0.000007 -0.000001 -43.760500 -66.920600 -84.703200 24.328600 0.000019 0.000005 14.301100 10.596900 -54.194200 22.291600 -0.000001 0.000005 35.050700 5.477020 -5.635180 12.994500 -0.242716 -4.980390 94.880800 -10.797200 -65.494700 -5.348130 -0.000001 -0.000004 -38.515300 -66.407600 -80.040100 -24.328900 0.000322 -0.000009 0.713893 0.508789 -54.578900 -22.291500 -0.000108 -0.000004 18.132700 5.553810 -8.883450 -2.192480 -6.469440 -0.000000 -175.951000 -11.195900 -4.249640 39.081100 -0.000007 -0.000012 -0.162531 0.344126 25.281700 40.985400 -0.000006 -0.000013 -0.896459 4.422830 -68.689700 11.754300 -0.000000 0.000003 -0.000195 -0.001816 -16.646100 -2.192510 6.469440 -0.000001 176.799000 21.756700 177.854000 -39.081100 -0.002282 -0.040193 0.015791 -0.027113 24.713300 -40.985400 0.000008 0.000006 7.325370 12.763500 -71.253500 -11.754300 -0.000006 -0.000006 -0.001127 -0.017198 -17.272500
0.000000 0.000000 0.000000 0.000000 0.000000 -0.000000 -1.131200 91.595500 1.315020 89.680900 -1.550960 2.182960 15.735700 0.000005 -0.000001 74.636600 88.044000 -75.016100 8.984550 -0.406207 -0.000000 -3.997410 -0.996776 -0.794259 16.377300 -0.000001 -0.000001 2.112500 -3.442840 2.751390 6.456720 -0.000001 -0.000000 -1.161150 -1.540540 1.527620 12.994200 -0.242716 4.980390 -83.408500 -11.073700 -58.968100 5.348090 -0.000007 -0.000001 -43.053200 -66.218800 -81.468900 24.328600 0.000019 0.000005 13.141700 8.849230 -56.620000 22.291600 -0.000001 0.000005 35.280700 5.462950 -5.109030 12.994500 -0.242716 -4.980390 94.650400 -10.360800 -65.662900 -5.348130 -0.000001 -0.000004 -35.490000 -65.634800 -75.819200 -24.328900 0.000322 -0.000009 -0.894210 -0.590466 -56.514800 -22.291500 -0.000108 -0.000004 16.866400 5.533230 -7.936390 -2.192480 -6.469440 -0.000000 -176.001000 -11.373300 -4.337860 39.081100 -0.000007 -0.000012 -0.161434 0.342633 25.228000 40.985400 -0.000006 -0.000013 -0.827496 4.616060 -68.543200 11.754300 -0.000000 0.000003 -0.000189 -0.001767 -16.644300 -2.192510 6.469440 -0.000001 176.779000 21.787400 177.753000 -39.081100 -0.002282 -0.040193 0.015258 -0.025996 24.679600 -40.985400 0.000008 0.000006 7.262140 12.788300 -71.149900 -11.754300 -0.000006 -0.000006 -0.000953 -0.014735 -17.172400
0.000000 0.000000 0.000000 0.000000 0.000000 -0.000000 -1.098090 91.602600 1.130310 89.731100 -1.572600 2.185490 15.735700 0.000005 -0.000001 75.198800 87.934700 -75.571700 8.984550 -0.406207 -0.000000 -3.776010 -1.017040 -0.779623 16.377300 -0.000001 -0.000001 2.060010 -3.372660 2.674960 6.456720 -0.000001 -0.000000 -1.404170 -1.519050 1.577750 12.994200 -0.242716 4.980390 -83.745000 -10.666600 -59.367700 5.348090 -0.000007 -0.000001 -41.509500 -64.979200 -76.066800 24.328600 0.000019 0.000005 13.475800 7.595120 -61.120500 22.291600 -0.000001 0.000005 34.980400 5.437330 -4.191510 12.994500 -0.242716 -4.980390 94.317700 -9.767240 -66.008600 -5.348130 -0.000001 -0.000004 -32.135000 -64.219700 -70.368200 -24.328900 0.000322 -0.000009 -2.917790 -1.690040 -59.924900 -22.291500 -0.000108 -0.000004 15.925200 5.513780 -7.097780 -2.192480 -6.469440 -0.000000 -176.059000 -11.659000 -4.486800 39.081100 -0.000007 -0.000012 -0.160250 0.339365 25.277100 40.985400 -0.000006 -0.000013 -0.740762 4.844780 -68.437200 11.754300 -0.000000 0.000003 -0.000201 -0.001859 -16.647700 -2.192510 6.469440 -0.000001 176.765000 21.758100 177.613000 -39.081100 -0.002282 -0.040193 0.016411 -0.028474 24.702000 -40.985400 0.000008 0.000006 7.340400 12.756000 -71.173300 -11.754300 -0.000006 -0.000006 -0.001050 -0.016114 -17.228400
